# xmcd CD database file
#
# Track frame offsets:
#	150
#	11449
#	23399
#	35293
#	48368
#	60138
#	74855
#	88446
#	101853
#	113534
#	123867
#	139058
#	151166
#	162281
#	177588
#	188516
#	201040
#
# Disc length: 2872 seconds
#
# Revision: 0
# Processed by: cddbd v1.4PL0 Copyright (c) Steve Scherf et al.
# Submitted via: CDex 1.50Beta7
#
DISCID=d80b3611
DTITLE=Bob Flesher - Pickin' in the Blue Ridge
DYEAR=1900
DGENRE=Country
TTITLE0=Meet Me Tonight In The Moonlight
TTITLE1=Blackberry Blossom
TTITLE2=The Good Sweet Ham
TTITLE3=Maple on the Hill
TTITLE4=Wake Up in the Morning
TTITLE5=I'll be There
TTITLE6=Lamp Lighting Time
TTITLE7=Flying Down Squirrel Spur
TTITLE8=Whistling Rufus
TTITLE9=Late Last Night
TTITLE10=Sally Ann
TTITLE11=My Home's Across The Blue Ridge Mountains
TTITLE12=Needle Case
TTITLE13=Fifty Miles Of Elbow Room
TTITLE14=You Ain't Talking To Me
TTITLE15=Sandy River Bell
TTITLE16=Once I Had A Fortune
EXTD=
EXTT0=
EXTT1=
EXTT2=
EXTT3=
EXTT4=
EXTT5=
EXTT6=
EXTT7=
EXTT8=
EXTT9=
EXTT10=
EXTT11=
EXTT12=
EXTT13=
EXTT14=
EXTT15=
EXTT16=
PLAYORDER=
